<?xml version="1.0" encoding="UTF-8"?>
<svg width="1200pt" height="1200pt" version="1.1" viewBox="0 0 1200 1200" xmlns="http://www.w3.org/2000/svg">
 <g>
  <path d="m698.4 898.8c4.8008 0 9.6016-1.1992 14.398-3.6016 18-8.3984 25.199-28.801 16.801-46.801 0 0-66-151.2-78-206.4-4.8008-19.199-7.1992-70.801-8.3984-94.801 0-8.3984 4.8008-15.602 12-18l147.6-44.398c18-4.8008 28.801-25.199 24-43.199s-25.199-28.801-43.199-24c0 0-136.8 44.398-186 44.398-48 0-183.6-43.199-183.6-43.199-18-4.8008-38.398 3.6016-44.398 21.602-6 19.199 4.8008 39.602 24 44.398l147.6 44.398c7.1992 2.3984 13.199 9.6016 12 18-1.1992 24-3.6016 75.602-8.3984 94.801-12 55.199-78 206.4-78 206.4-8.3984 18 0 38.398 16.801 46.801 4.8008 2.3984 9.6016 3.6016 14.398 3.6016 13.199 0 26.398-7.1992 31.199-20.398l70.797-144 67.199 145.2c6 12.004 18 19.203 31.199 19.203z"/>
  <path d="m667.2 360c0 37.113-30.086 67.199-67.199 67.199s-67.199-30.086-67.199-67.199 30.086-67.199 67.199-67.199 67.199 30.086 67.199 67.199"/>
  <path d="m1082.4 600c0-266.4-216-482.4-482.4-482.4s-482.4 216-482.4 482.4 216 482.4 482.4 482.4 482.4-216 482.4-482.4zm-925.2 0c0-243.6 198-442.8 442.8-442.8s442.8 199.2 442.8 442.8-199.2 442.8-442.8 442.8-442.8-199.2-442.8-442.8z"/>
 </g>
</svg>
