<?xml version="1.0" encoding="UTF-8"?>
<svg width="1200pt" height="1200pt" version="1.1" viewBox="0 0 1200 1200" xmlns="http://www.w3.org/2000/svg">
 <path d="m96.883 167.12h1006.4c17.938 0 34.23 7.3281 46.105 19.199 11.875 11.875 19.199 28.168 19.199 46.105v735.16c0 17.938-7.3281 34.23-19.199 46.105-11.875 11.875-28.168 19.199-46.105 19.199h-1006.4c-17.938 0-34.23-7.3281-46.105-19.199-11.875-11.875-19.199-28.168-19.199-46.105v-735.16c0-17.938 7.3281-34.23 19.199-46.105 11.875-11.875 28.168-19.199 46.105-19.199zm943.96 74.652c-7.3281 0-13.391 5.9375-13.391 13.262 0 7.3281 5.9375 13.262 13.391 13.262s13.262-5.9375 13.262-13.262c0-7.3281-5.9375-13.262-13.262-13.262zm-75.535 0c-7.3281 0-13.262 5.9375-13.262 13.262 0 7.3281 5.9375 13.262 13.391 13.262s13.262-5.9375 13.262-13.262c0-7.3281-5.9375-13.262-13.391-13.262zm-75.535 0c-7.3281 0-13.391 5.9375-13.391 13.262 0 7.3281 5.9375 13.262 13.391 13.262s13.262-5.9375 13.262-13.262c0-7.3281-5.9375-13.262-13.391-13.262zm-496.29-28.547c-11.496 0-21.98 4.6719-29.559 12.254-7.5781 7.5781-12.254 18.062-12.254 29.559s4.6719 21.98 12.254 29.559c7.5781 7.5781 18.062 12.254 29.559 12.254 11.496 0 21.98-4.6719 29.559-12.254 7.5781-7.5781 12.254-18.062 12.254-29.559s-4.6719-21.98-12.254-29.559c-7.5781-7.5781-18.062-12.254-29.559-12.254zm10.738 31.074c-2.7773-2.7773-6.5703-4.4219-10.738-4.4219-4.168 0-7.957 1.6406-10.738 4.4219-2.7773 2.7773-4.4219 6.5703-4.4219 10.738 0 4.168 1.6406 7.957 4.4219 10.738 2.7773 2.7773 6.5703 4.4219 10.738 4.4219 4.168 0 7.957-1.6406 10.738-4.4219 2.7773-2.7773 4.4219-6.5703 4.4219-10.738 0-4.168-1.6406-7.957-4.4219-10.738zm-113.56-31.074c-11.496 0-21.98 4.6719-29.559 12.254-7.5781 7.5781-12.254 18.062-12.254 29.559s4.6719 21.98 12.254 29.559c7.5781 7.5781 18.062 12.254 29.559 12.254s21.98-4.6719 29.559-12.254c7.5781-7.5781 12.254-18.062 12.254-29.559s-4.6719-21.98-12.254-29.559c-7.5781-7.5781-18.062-12.254-29.559-12.254zm10.738 31.074c-2.7773-2.7773-6.5703-4.4219-10.738-4.4219s-7.957 1.6406-10.738 4.4219c-2.7773 2.7773-4.4219 6.5703-4.4219 10.738 0 4.168 1.6406 7.957 4.4219 10.738 2.7773 2.7773 6.5703 4.4219 10.738 4.4219s7.957-1.6406 10.738-4.4219c2.7773-2.7773 4.4219-6.5703 4.4219-10.738 0-4.168-1.6406-7.957-4.4219-10.738zm-113.56-31.074c-11.496 0-21.98 4.6719-29.559 12.254-7.5781 7.5781-12.254 18.062-12.254 29.559s4.6719 21.98 12.254 29.559c7.5781 7.5781 18.062 12.254 29.559 12.254 11.496 0 21.98-4.6719 29.559-12.254 7.5781-7.5781 12.254-18.062 12.254-29.559s-4.6719-21.98-12.254-29.559c-7.5781-7.5781-18.062-12.254-29.559-12.254zm10.738 31.074c-2.7773-2.7773-6.5703-4.4219-10.738-4.4219-4.168 0-7.957 1.6406-10.738 4.4219-2.7773 2.7773-4.4219 6.5703-4.4219 10.738 0 4.168 1.6406 7.957 4.4219 10.738 2.7773 2.7773 6.5703 4.4219 10.738 4.4219 4.168 0 7.957-1.6406 10.738-4.4219 2.7773-2.7773 4.4219-6.5703 4.4219-10.738 0-4.168-1.6406-7.957-4.4219-10.738zm547.07 700.8h181.77c7.3281 0 13.262-5.9375 13.262-13.262 0-7.3281-5.9375-13.262-13.262-13.262h-181.77c-7.3281 0-13.262 5.9375-13.262 13.262 0 7.3281 5.9375 13.262 13.262 13.262zm234.95 0h81.727c7.3281 0 13.262-5.9375 13.262-13.262 0-7.3281-5.9375-13.262-13.262-13.262h-81.727c-7.3281 0-13.262 5.9375-13.262 13.262 0 7.3281 5.9375 13.262 13.262 13.262zm-234.95-109.39h142.99c7.3281 0 13.262-5.9375 13.262-13.262 0-7.3281-5.9375-13.262-13.262-13.262h-142.99c-7.3281 0-13.262 5.9375-13.262 13.262 0 7.3281 5.9375 13.262 13.262 13.262zm181.77 0h53.18c7.3281 0 13.262-5.9375 13.262-13.262 0-7.3281-5.9375-13.262-13.262-13.262h-53.18c-7.3281 0-13.262 5.9375-13.262 13.262 0 7.3281 5.9375 13.262 13.262 13.262zm91.832 0h43.074c7.3281 0 13.262-5.9375 13.262-13.262 0-7.3281-5.9375-13.262-13.262-13.262h-43.074c-7.3281 0-13.262 5.9375-13.262 13.262 0 7.3281 5.9375 13.262 13.262 13.262zm-273.6-109.39h54.949c7.3281 0 13.262-5.9375 13.262-13.262 0-7.3281-5.9375-13.262-13.262-13.262h-54.949c-7.3281 0-13.262 5.9375-13.262 13.262 0 7.3281 5.9375 13.262 13.262 13.262zm93.602 0h222.95c7.3281 0 13.262-5.9375 13.262-13.262 0-7.3281-5.9375-13.262-13.262-13.262h-222.95c-7.3281 0-13.262 5.9375-13.262 13.262 0 7.3281 5.9375 13.262 13.262 13.262zm-93.602-109.39h181.77c7.3281 0 13.262-5.9375 13.262-13.262 0-7.3281-5.9375-13.262-13.262-13.262h-181.77c-7.3281 0-13.262 5.9375-13.262 13.262 0 7.3281 5.9375 13.262 13.262 13.262zm234.95 0h81.727c7.3281 0 13.262-5.9375 13.262-13.262 0-7.3281-5.9375-13.262-13.262-13.262h-81.727c-7.3281 0-13.262 5.9375-13.262 13.262 0 7.3281 5.9375 13.262 13.262 13.262zm-234.95-109.39h54.949c7.3281 0 13.262-5.9375 13.262-13.262 0-7.3281-5.9375-13.262-13.262-13.262h-54.949c-7.3281 0-13.262 5.9375-13.262 13.262 0 7.3281 5.9375 13.262 13.262 13.262zm93.602 0h148.17c7.3281 0 13.262-5.9375 13.262-13.262 0-7.3281-5.9375-13.262-13.262-13.262h-148.17c-7.3281 0-13.262 5.9375-13.262 13.262 0 7.3281 5.9375 13.262 13.262 13.262zm-269.05 167.24-79.578 79.578c-5.5586 5.5586-8.3359 12.883-8.3359 20.086 0 7.1992 2.7773 14.398 8.3359 19.957l1.1367 1.1367s0.37891 0.50391 0.63281 0.75781c5.5586 5.5586 12.883 8.3359 20.086 8.3359 7.1992 0 14.527-2.7773 20.086-8.3359l112.04-112.04c5.1797-5.1797 5.1797-13.641 0-18.82l-112.04-112.04c-5.5586-5.5586-12.883-8.3359-20.086-8.3359-7.1992 0-14.527 2.7773-20.086 8.3359l-1.7695 1.7695c-5.5586 5.5586-8.3359 12.883-8.3359 20.086 0 7.1992 2.7773 14.527 8.3359 20.086l79.578 79.578zm-60.758-98.398 88.926 88.926c5.1797 5.1797 5.1797 13.641 0 18.82l-88.926 88.926c-0.25391 0.25391-0.50391 0.75781-0.50391 1.2617s0.125 1.0117 0.50391 1.2617l1.1367 1.1367s0.50391 0.37891 0.75781 0.63281c0.37891 0.37891 0.75781 0.50391 1.2617 0.50391s0.88281-0.125 1.2617-0.50391l102.7-102.7-102.7-102.7s-0.75781-0.50391-1.2617-0.50391-0.88281 0.125-1.2617 0.50391l-1.7695 1.7695c-0.25391 0.25391-0.50391 0.75781-0.50391 1.2617s0.125 0.88281 0.50391 1.2617zm-304.67 98.398 79.578-79.578c5.5586-5.5586 8.3359-12.758 8.3359-20.086s-2.7773-14.527-8.3359-20.086l-1.7695-1.7695c-5.5586-5.5586-12.883-8.3359-20.086-8.3359-6.8203 0-13.641 2.5273-19.074 7.3281-0.37891 0.25391-0.75781 0.63281-1.0117 0.88281l-112.04 112.04c-5.1797 5.1797-5.1797 13.641 0 18.82l112.04 112.04c5.5586 5.5586 12.883 8.3359 20.086 8.3359 7.1992 0 14.527-2.7773 20.086-8.3359l1.7695-1.7695c5.5586-5.5586 8.3359-12.883 8.3359-20.086 0-7.1992-2.7773-14.527-8.3359-20.086l-79.578-79.578zm60.758 98.398-88.926-88.926c-5.1797-5.1797-5.1797-13.641 0-18.82l88.926-88.926s0.50391-0.75781 0.50391-1.2617c0-0.50391-0.125-0.88281-0.50391-1.2617l-1.7695-1.7695s-0.75781-0.50391-1.2617-0.50391c-0.37891 0-0.75781 0-1.0117 0.25391l-102.95 102.95 102.7 102.7c0.25391 0.25391 0.75781 0.50391 1.2617 0.50391 0.50391 0 0.88281-0.125 1.2617-0.50391l1.7695-1.7695s0.50391-0.75781 0.50391-1.2617c0-0.50391-0.125-0.88281-0.50391-1.2617zm185.94-222.7c1.8945-7.1992 0.88281-14.398-2.3984-20.59-0.125-0.37891-0.37891-0.63281-0.50391-1.0117-3.6641-6.3164-9.7266-11.242-17.18-13.262l-2.3984-0.63281c-7.1992-1.8945-14.398-0.88281-20.59 2.3984-0.37891 0.125-0.63281 0.37891-1.0117 0.50391-6.3164 3.6641-11.242 9.7266-13.262 17.18l-70.738 263.88c-1.8945 7.1992-0.88281 14.398 2.3984 20.59 0.125 0.37891 0.37891 0.63281 0.50391 1.0117 3.6641 6.3164 9.7266 11.242 17.18 13.262l2.3984 0.63281c7.1992 1.8945 14.398 0.88281 20.59-2.3984 0.37891-0.125 0.63281-0.37891 1.0117-0.50391 6.3164-3.6641 11.242-9.7266 13.262-17.18zm-96.379 257.05 70.738-263.88v-1.1367-0.25391s-0.75781-0.75781-1.2617-0.88281l-2.3984-0.63281h-1.1367-0.25391s-0.75781 0.75781-0.88281 1.2617l-70.738 263.88v1.1367 0.25391s0.75781 0.75781 1.2617 0.88281l2.3984 0.63281h1.1367 0.25391s0.75781-0.75781 0.88281-1.2617zm786.82-464.34-1083.7 0.003907v624.63c0 10.609 4.293 20.211 11.367 27.285 7.0742 7.0742 16.672 11.367 27.285 11.367h1006.4c10.609 0 20.211-4.293 27.285-11.367 7.0742-7.0742 11.367-16.672 11.367-27.285v-624.88zm-1083.7-26.902h1083.5v-83.875c0-10.609-4.293-20.211-11.367-27.285-6.9492-6.9492-16.672-11.367-27.285-11.367l-1006.2 0.003906c-10.609 0-20.211 4.293-27.285 11.367-6.9492 6.9492-11.367 16.672-11.367 27.285v83.875z" fill-rule="evenodd"/>
</svg>
