<?xml version="1.0" encoding="UTF-8"?>
<svg width="1200pt" height="1200pt" version="1.1" viewBox="0 0 1200 1200" xmlns="http://www.w3.org/2000/svg">
 <g fill-rule="evenodd">
  <path d="m108 243.42c0-35.016 28.406-63.422 63.422-63.422h716.76c35.016 0 63.422 28.406 63.422 63.422v200.58h-24v-200.58c0-21.75-17.672-39.422-39.422-39.422h-716.76c-21.75 0-39.422 17.672-39.422 39.422v418.69h495.47v24h-495.47v33c0 21.797 17.672 39.422 39.422 39.422h464.58v24h-60.469v57.469h48.469c6.6094 0 12 5.3906 12 12s-5.3906 12-12 12h-216c-6.6094 0-12-5.3906-12-12s5.3906-12 12-12h143.53v-57.469h-380.11c-35.016 0-63.422-28.406-63.422-63.422zm385.69 478.92c0-6.6562 5.3906-12 12-12h96.422c6.6562 0 12 5.3438 12 12 0 6.6094-5.3438 12-12 12h-96.422c-6.6094 0-12-5.3906-12-12z"/>
  <path d="m627.47 484.5c0-35.062 28.406-63.422 63.469-63.422h252.37c35.016 0 63.422 28.359 63.422 63.422v103.5h-24v-103.5c0-21.797-17.672-39.422-39.422-39.422h-252.37c-21.797 0-39.469 17.625-39.469 39.422v331.5h212.53v24h-212.53v23.766c0 21.75 17.672 39.422 39.469 39.422h173.06v24h-173.06c-35.062 0-63.469-28.406-63.469-63.422zm191.63 382.45c0-6.6094 5.3438-12 12-12h24.094c6.6094 0 12 5.3906 12 12 0 6.6562-5.3906 12-12 12h-24.094c-6.6562 0-12-5.3438-12-12z"/>
  <path d="m867.19 659.76v268.69h193.03v-268.69zm193.03-24h-193.03v-6.6562c0-15.141 12.281-27.422 27.422-27.422h138.19c15.141 0 27.422 12.281 27.422 27.422zm0 316.69h-193.03v7.7344c0 15.141 12.281 27.422 27.422 27.422h138.19c15.141 0 27.422-12.281 27.422-27.422zm-165.61-374.76c-28.406 0-51.422 23.016-51.422 51.422v331.08c0 28.406 23.016 51.422 51.422 51.422h138.19c28.406 0 51.422-23.016 51.422-51.422v-331.08c0-28.406-23.016-51.422-51.422-51.422z"/>
 </g>
</svg>
