<svg width="16" height="16" viewBox="0 0 16 16" fill="none" xmlns="http://www.w3.org/2000/svg">
<g clip-path="url(#clip0_175_2)">
<rect width="16" height="16" rx="3" fill="#336699"/>
<path d="M5.72 5.662V9.658C5.72 9.798 5.698 9.89 5.654 9.934C5.614 9.978 5.526 10 5.39 10H4.538C4.302 10 4.146 9.964 4.07 9.892C3.998 9.82 3.934 9.634 3.878 9.334C3.766 8.742 3.604 7.786 3.392 6.466C3.376 6.366 3.352 6.302 3.32 6.274C3.292 6.246 3.242 6.23 3.17 6.226H2.432V5.662H3.734C3.834 5.662 3.914 5.674 3.974 5.698C4.034 5.722 4.082 5.774 4.118 5.854C4.158 5.93 4.184 6.004 4.196 6.076C4.212 6.148 4.228 6.232 4.244 6.328C4.264 6.444 4.292 6.614 4.328 6.838C4.396 7.29 4.502 7.928 4.646 8.752C4.702 9.104 4.74 9.302 4.76 9.346C4.784 9.386 4.824 9.41 4.88 9.418V5.902C4.88 5.83 4.9 5.772 4.94 5.728C4.98 5.684 5.032 5.662 5.096 5.662H5.72ZM2.432 6.436H3.056C3.12 6.436 3.172 6.458 3.212 6.502C3.252 6.546 3.272 6.604 3.272 6.676V9.658C3.272 9.794 3.254 9.886 3.218 9.934C3.182 9.978 3.11 10 3.002 10H2.432V6.436ZM6.5023 7.006H6.8683C7.0443 7.006 7.1763 7.05 7.2643 7.138C7.3563 7.222 7.4023 7.332 7.4023 7.468V10H6.7183C6.6543 10 6.6023 9.978 6.5623 9.934C6.5223 9.89 6.5023 9.832 6.5023 9.76V7.006ZM6.5443 5.728C6.5883 5.684 6.7163 5.662 6.9283 5.662C7.1403 5.662 7.2683 5.684 7.3123 5.728C7.3563 5.768 7.3783 5.888 7.3783 6.088C7.3783 6.288 7.3543 6.41 7.3063 6.454C7.2623 6.498 7.1363 6.52 6.9283 6.52C6.7203 6.52 6.5923 6.498 6.5443 6.454C6.5003 6.41 6.4783 6.288 6.4783 6.088C6.4783 5.888 6.5003 5.768 6.5443 5.728ZM9.14019 7H9.98019C10.4162 7 10.6342 7.214 10.6342 7.642V10H9.95019C9.88619 10 9.83419 9.978 9.79419 9.934C9.75419 9.89 9.73419 9.832 9.73419 9.76V7.63C9.73419 7.566 9.71819 7.52 9.68619 7.492C9.65819 7.464 9.59219 7.45 9.48819 7.45H9.14019V7ZM8.09019 7H8.45619C8.63219 7 8.76419 7.044 8.85219 7.132C8.94419 7.216 8.99019 7.326 8.99019 7.462V10H8.30619C8.24219 10 8.19019 9.978 8.15019 9.934C8.11019 9.89 8.09019 9.832 8.09019 9.76V7ZM12.3867 7H12.9687C13.1207 7 13.2447 7.008 13.3407 7.024C13.4367 7.036 13.5207 7.066 13.5927 7.114C13.6647 7.162 13.7187 7.216 13.7547 7.276C13.7907 7.332 13.8187 7.424 13.8387 7.552C13.8707 7.732 13.8867 7.984 13.8867 8.308C13.8867 8.632 13.8847 8.852 13.8807 8.968C13.8767 9.08 13.8687 9.2 13.8567 9.328C13.8487 9.456 13.8307 9.55 13.8027 9.61C13.7787 9.67 13.7447 9.732 13.7007 9.796C13.6607 9.856 13.6067 9.898 13.5387 9.922C13.3907 9.974 13.2007 10 12.9687 10H12.9567V7.738C12.9567 7.73 12.9567 7.706 12.9567 7.666C12.9567 7.626 12.9547 7.592 12.9507 7.564C12.9307 7.488 12.8507 7.45 12.7107 7.45H12.3867V7ZM12.2067 7V9.262C12.2067 9.27 12.2067 9.294 12.2067 9.334C12.2067 9.374 12.2107 9.408 12.2187 9.436C12.2347 9.512 12.3127 9.55 12.4527 9.55H12.7767V10H12.1947C12.0427 10 11.9187 9.994 11.8227 9.982C11.7267 9.966 11.6427 9.934 11.5707 9.886C11.4987 9.838 11.4447 9.786 11.4087 9.73C11.3727 9.67 11.3427 9.576 11.3187 9.448C11.2907 9.268 11.2767 9.016 11.2767 8.692C11.2767 8.368 11.2787 8.15 11.2827 8.038C11.2867 7.922 11.2927 7.8 11.3007 7.672C11.3127 7.544 11.3307 7.45 11.3547 7.39C11.3827 7.33 11.4167 7.27 11.4567 7.21C11.5007 7.146 11.5567 7.102 11.6247 7.078C11.7727 7.026 11.9627 7 12.1947 7H12.2067Z" fill="#FF9500"/>
</g>
<defs>
<clipPath id="clip0_175_2">
<rect width="16" height="16" rx="3" fill="white"/>
</clipPath>
</defs>
</svg>
