<svg width="185" height="70" viewBox="0 0 185 70" fill="none" xmlns="http://www.w3.org/2000/svg">
<path d="M53.52 0.591995V64.528C53.52 66.768 53.168 68.24 52.464 68.944C51.824 69.648 50.416 70 48.24 70H34.608C30.832 70 28.336 69.424 27.12 68.272C25.968 67.12 24.944 64.144 24.048 59.344C22.256 49.872 19.664 34.576 16.272 13.456C16.016 11.856 15.632 10.832 15.12 10.384C14.672 9.936 13.872 9.68 12.72 9.616H0.912V0.591995H21.744C23.344 0.591995 24.624 0.783997 25.584 1.168C26.544 1.552 27.312 2.384 27.888 3.664C28.528 4.88 28.944 6.064 29.136 7.216C29.392 8.368 29.648 9.712 29.904 11.248C30.224 13.104 30.672 15.824 31.248 19.408C32.336 26.64 34.032 36.848 36.336 50.032C37.232 55.664 37.84 58.832 38.16 59.536C38.544 60.176 39.184 60.56 40.08 60.688V4.432C40.08 3.28 40.4 2.352 41.04 1.648C41.68 0.943996 42.512 0.591995 43.536 0.591995H53.52ZM0.912 12.976H10.896C11.92 12.976 12.752 13.328 13.392 14.032C14.032 14.736 14.352 15.664 14.352 16.816V64.528C14.352 66.704 14.064 68.176 13.488 68.944C12.912 69.648 11.76 70 10.032 70H0.912V12.976ZM66.0368 22.096H71.8928C74.7088 22.096 76.8208 22.8 78.2288 24.208C79.7008 25.552 80.4368 27.312 80.4368 29.488V70H69.4928C68.4688 70 67.6368 69.648 66.9968 68.944C66.3568 68.24 66.0368 67.312 66.0368 66.16V22.096ZM66.7088 1.648C67.4128 0.943996 69.4608 0.591995 72.8528 0.591995C76.2448 0.591995 78.2928 0.943996 78.9968 1.648C79.7008 2.288 80.0528 4.208 80.0528 7.408C80.0528 10.608 79.6688 12.56 78.9008 13.264C78.1968 13.968 76.1808 14.32 72.8528 14.32C69.5248 14.32 67.4768 13.968 66.7088 13.264C66.0048 12.56 65.6528 10.608 65.6528 7.408C65.6528 4.208 66.0048 2.288 66.7088 1.648ZM108.243 22H121.683C128.659 22 132.147 25.424 132.147 32.272V70H121.203C120.179 70 119.347 69.648 118.707 68.944C118.067 68.24 117.747 67.312 117.747 66.16V32.08C117.747 31.056 117.491 30.32 116.979 29.872C116.531 29.424 115.475 29.2 113.811 29.2H108.243V22ZM91.443 22H97.299C100.115 22 102.227 22.704 103.635 24.112C105.107 25.456 105.843 27.216 105.843 29.392V70H94.899C93.875 70 93.043 69.648 92.403 68.944C91.763 68.24 91.443 67.312 91.443 66.16V22ZM160.187 22H169.499C171.931 22 173.915 22.128 175.451 22.384C176.987 22.576 178.331 23.056 179.483 23.824C180.635 24.592 181.499 25.456 182.075 26.416C182.651 27.312 183.099 28.784 183.419 30.832C183.931 33.712 184.187 37.744 184.187 42.928C184.187 48.112 184.155 51.632 184.091 53.488C184.027 55.28 183.899 57.2 183.707 59.248C183.579 61.296 183.291 62.8 182.843 63.76C182.459 64.72 181.915 65.712 181.211 66.736C180.571 67.696 179.707 68.368 178.619 68.752C176.251 69.584 173.211 70 169.499 70H169.307V33.808C169.307 33.68 169.307 33.296 169.307 32.656C169.307 32.016 169.275 31.472 169.211 31.024C168.891 29.808 167.611 29.2 165.371 29.2H160.187V22ZM157.307 22V58.192C157.307 58.32 157.307 58.704 157.307 59.344C157.307 59.984 157.371 60.528 157.499 60.976C157.755 62.192 159.003 62.8 161.243 62.8H166.427V70H157.115C154.683 70 152.699 69.904 151.163 69.712C149.627 69.456 148.283 68.944 147.131 68.176C145.979 67.408 145.115 66.576 144.539 65.68C143.963 64.72 143.483 63.216 143.099 61.168C142.651 58.288 142.427 54.256 142.427 49.072C142.427 43.888 142.459 40.4 142.523 38.608C142.587 36.752 142.683 34.8 142.811 32.752C143.003 30.704 143.291 29.2 143.675 28.24C144.123 27.28 144.667 26.32 145.307 25.36C146.011 24.336 146.907 23.632 147.995 23.248C150.363 22.416 153.403 22 157.115 22H157.307Z" fill="#FF9500"/>
</svg>
