<svg width="0" height="0" class="hidden">
  <symbol version="1.1" xmlns="http://www.w3.org/2000/svg" viewBox="0 0 1200 1200" id="responsive-design-icon">
    <g fill-rule="evenodd">
      <path d="m108 243.42c0-35.016 28.406-63.422 63.422-63.422h716.76c35.016 0 63.422 28.406 63.422 63.422v200.58h-24v-200.58c0-21.75-17.672-39.422-39.422-39.422h-716.76c-21.75 0-39.422 17.672-39.422 39.422v418.69h495.47v24h-495.47v33c0 21.797 17.672 39.422 39.422 39.422h464.58v24h-60.469v57.469h48.469c6.6094 0 12 5.3906 12 12s-5.3906 12-12 12h-216c-6.6094 0-12-5.3906-12-12s5.3906-12 12-12h143.53v-57.469h-380.11c-35.016 0-63.422-28.406-63.422-63.422zm385.69 478.92c0-6.6562 5.3906-12 12-12h96.422c6.6562 0 12 5.3438 12 12 0 6.6094-5.3438 12-12 12h-96.422c-6.6094 0-12-5.3906-12-12z"></path>
      <path d="m627.47 484.5c0-35.062 28.406-63.422 63.469-63.422h252.37c35.016 0 63.422 28.359 63.422 63.422v103.5h-24v-103.5c0-21.797-17.672-39.422-39.422-39.422h-252.37c-21.797 0-39.469 17.625-39.469 39.422v331.5h212.53v24h-212.53v23.766c0 21.75 17.672 39.422 39.469 39.422h173.06v24h-173.06c-35.062 0-63.469-28.406-63.469-63.422zm191.63 382.45c0-6.6094 5.3438-12 12-12h24.094c6.6094 0 12 5.3906 12 12 0 6.6562-5.3906 12-12 12h-24.094c-6.6562 0-12-5.3438-12-12z"></path>
      <path d="m867.19 659.76v268.69h193.03v-268.69zm193.03-24h-193.03v-6.6562c0-15.141 12.281-27.422 27.422-27.422h138.19c15.141 0 27.422 12.281 27.422 27.422zm0 316.69h-193.03v7.7344c0 15.141 12.281 27.422 27.422 27.422h138.19c15.141 0 27.422-12.281 27.422-27.422zm-165.61-374.76c-28.406 0-51.422 23.016-51.422 51.422v331.08c0 28.406 23.016 51.422 51.422 51.422h138.19c28.406 0 51.422-23.016 51.422-51.422v-331.08c0-28.406-23.016-51.422-51.422-51.422z"></path>
    </g>
  </symbol>
  <symbol version="1.1" xmlns="http://www.w3.org/2000/svg" viewBox="0 0 1200 1200" id="code-icon">
    <path d="m96.883 167.12h1006.4c17.938 0 34.23 7.3281 46.105 19.199 11.875 11.875 19.199 28.168 19.199 46.105v735.16c0 17.938-7.3281 34.23-19.199 46.105-11.875 11.875-28.168 19.199-46.105 19.199h-1006.4c-17.938 0-34.23-7.3281-46.105-19.199-11.875-11.875-19.199-28.168-19.199-46.105v-735.16c0-17.938 7.3281-34.23 19.199-46.105 11.875-11.875 28.168-19.199 46.105-19.199zm943.96 74.652c-7.3281 0-13.391 5.9375-13.391 13.262 0 7.3281 5.9375 13.262 13.391 13.262s13.262-5.9375 13.262-13.262c0-7.3281-5.9375-13.262-13.262-13.262zm-75.535 0c-7.3281 0-13.262 5.9375-13.262 13.262 0 7.3281 5.9375 13.262 13.391 13.262s13.262-5.9375 13.262-13.262c0-7.3281-5.9375-13.262-13.391-13.262zm-75.535 0c-7.3281 0-13.391 5.9375-13.391 13.262 0 7.3281 5.9375 13.262 13.391 13.262s13.262-5.9375 13.262-13.262c0-7.3281-5.9375-13.262-13.391-13.262zm-496.29-28.547c-11.496 0-21.98 4.6719-29.559 12.254-7.5781 7.5781-12.254 18.062-12.254 29.559s4.6719 21.98 12.254 29.559c7.5781 7.5781 18.062 12.254 29.559 12.254 11.496 0 21.98-4.6719 29.559-12.254 7.5781-7.5781 12.254-18.062 12.254-29.559s-4.6719-21.98-12.254-29.559c-7.5781-7.5781-18.062-12.254-29.559-12.254zm10.738 31.074c-2.7773-2.7773-6.5703-4.4219-10.738-4.4219-4.168 0-7.957 1.6406-10.738 4.4219-2.7773 2.7773-4.4219 6.5703-4.4219 10.738 0 4.168 1.6406 7.957 4.4219 10.738 2.7773 2.7773 6.5703 4.4219 10.738 4.4219 4.168 0 7.957-1.6406 10.738-4.4219 2.7773-2.7773 4.4219-6.5703 4.4219-10.738 0-4.168-1.6406-7.957-4.4219-10.738zm-113.56-31.074c-11.496 0-21.98 4.6719-29.559 12.254-7.5781 7.5781-12.254 18.062-12.254 29.559s4.6719 21.98 12.254 29.559c7.5781 7.5781 18.062 12.254 29.559 12.254s21.98-4.6719 29.559-12.254c7.5781-7.5781 12.254-18.062 12.254-29.559s-4.6719-21.98-12.254-29.559c-7.5781-7.5781-18.062-12.254-29.559-12.254zm10.738 31.074c-2.7773-2.7773-6.5703-4.4219-10.738-4.4219s-7.957 1.6406-10.738 4.4219c-2.7773 2.7773-4.4219 6.5703-4.4219 10.738 0 4.168 1.6406 7.957 4.4219 10.738 2.7773 2.7773 6.5703 4.4219 10.738 4.4219s7.957-1.6406 10.738-4.4219c2.7773-2.7773 4.4219-6.5703 4.4219-10.738 0-4.168-1.6406-7.957-4.4219-10.738zm-113.56-31.074c-11.496 0-21.98 4.6719-29.559 12.254-7.5781 7.5781-12.254 18.062-12.254 29.559s4.6719 21.98 12.254 29.559c7.5781 7.5781 18.062 12.254 29.559 12.254 11.496 0 21.98-4.6719 29.559-12.254 7.5781-7.5781 12.254-18.062 12.254-29.559s-4.6719-21.98-12.254-29.559c-7.5781-7.5781-18.062-12.254-29.559-12.254zm10.738 31.074c-2.7773-2.7773-6.5703-4.4219-10.738-4.4219-4.168 0-7.957 1.6406-10.738 4.4219-2.7773 2.7773-4.4219 6.5703-4.4219 10.738 0 4.168 1.6406 7.957 4.4219 10.738 2.7773 2.7773 6.5703 4.4219 10.738 4.4219 4.168 0 7.957-1.6406 10.738-4.4219 2.7773-2.7773 4.4219-6.5703 4.4219-10.738 0-4.168-1.6406-7.957-4.4219-10.738zm547.07 700.8h181.77c7.3281 0 13.262-5.9375 13.262-13.262 0-7.3281-5.9375-13.262-13.262-13.262h-181.77c-7.3281 0-13.262 5.9375-13.262 13.262 0 7.3281 5.9375 13.262 13.262 13.262zm234.95 0h81.727c7.3281 0 13.262-5.9375 13.262-13.262 0-7.3281-5.9375-13.262-13.262-13.262h-81.727c-7.3281 0-13.262 5.9375-13.262 13.262 0 7.3281 5.9375 13.262 13.262 13.262zm-234.95-109.39h142.99c7.3281 0 13.262-5.9375 13.262-13.262 0-7.3281-5.9375-13.262-13.262-13.262h-142.99c-7.3281 0-13.262 5.9375-13.262 13.262 0 7.3281 5.9375 13.262 13.262 13.262zm181.77 0h53.18c7.3281 0 13.262-5.9375 13.262-13.262 0-7.3281-5.9375-13.262-13.262-13.262h-53.18c-7.3281 0-13.262 5.9375-13.262 13.262 0 7.3281 5.9375 13.262 13.262 13.262zm91.832 0h43.074c7.3281 0 13.262-5.9375 13.262-13.262 0-7.3281-5.9375-13.262-13.262-13.262h-43.074c-7.3281 0-13.262 5.9375-13.262 13.262 0 7.3281 5.9375 13.262 13.262 13.262zm-273.6-109.39h54.949c7.3281 0 13.262-5.9375 13.262-13.262 0-7.3281-5.9375-13.262-13.262-13.262h-54.949c-7.3281 0-13.262 5.9375-13.262 13.262 0 7.3281 5.9375 13.262 13.262 13.262zm93.602 0h222.95c7.3281 0 13.262-5.9375 13.262-13.262 0-7.3281-5.9375-13.262-13.262-13.262h-222.95c-7.3281 0-13.262 5.9375-13.262 13.262 0 7.3281 5.9375 13.262 13.262 13.262zm-93.602-109.39h181.77c7.3281 0 13.262-5.9375 13.262-13.262 0-7.3281-5.9375-13.262-13.262-13.262h-181.77c-7.3281 0-13.262 5.9375-13.262 13.262 0 7.3281 5.9375 13.262 13.262 13.262zm234.95 0h81.727c7.3281 0 13.262-5.9375 13.262-13.262 0-7.3281-5.9375-13.262-13.262-13.262h-81.727c-7.3281 0-13.262 5.9375-13.262 13.262 0 7.3281 5.9375 13.262 13.262 13.262zm-234.95-109.39h54.949c7.3281 0 13.262-5.9375 13.262-13.262 0-7.3281-5.9375-13.262-13.262-13.262h-54.949c-7.3281 0-13.262 5.9375-13.262 13.262 0 7.3281 5.9375 13.262 13.262 13.262zm93.602 0h148.17c7.3281 0 13.262-5.9375 13.262-13.262 0-7.3281-5.9375-13.262-13.262-13.262h-148.17c-7.3281 0-13.262 5.9375-13.262 13.262 0 7.3281 5.9375 13.262 13.262 13.262zm-269.05 167.24-79.578 79.578c-5.5586 5.5586-8.3359 12.883-8.3359 20.086 0 7.1992 2.7773 14.398 8.3359 19.957l1.1367 1.1367s0.37891 0.50391 0.63281 0.75781c5.5586 5.5586 12.883 8.3359 20.086 8.3359 7.1992 0 14.527-2.7773 20.086-8.3359l112.04-112.04c5.1797-5.1797 5.1797-13.641 0-18.82l-112.04-112.04c-5.5586-5.5586-12.883-8.3359-20.086-8.3359-7.1992 0-14.527 2.7773-20.086 8.3359l-1.7695 1.7695c-5.5586 5.5586-8.3359 12.883-8.3359 20.086 0 7.1992 2.7773 14.527 8.3359 20.086l79.578 79.578zm-60.758-98.398 88.926 88.926c5.1797 5.1797 5.1797 13.641 0 18.82l-88.926 88.926c-0.25391 0.25391-0.50391 0.75781-0.50391 1.2617s0.125 1.0117 0.50391 1.2617l1.1367 1.1367s0.50391 0.37891 0.75781 0.63281c0.37891 0.37891 0.75781 0.50391 1.2617 0.50391s0.88281-0.125 1.2617-0.50391l102.7-102.7-102.7-102.7s-0.75781-0.50391-1.2617-0.50391-0.88281 0.125-1.2617 0.50391l-1.7695 1.7695c-0.25391 0.25391-0.50391 0.75781-0.50391 1.2617s0.125 0.88281 0.50391 1.2617zm-304.67 98.398 79.578-79.578c5.5586-5.5586 8.3359-12.758 8.3359-20.086s-2.7773-14.527-8.3359-20.086l-1.7695-1.7695c-5.5586-5.5586-12.883-8.3359-20.086-8.3359-6.8203 0-13.641 2.5273-19.074 7.3281-0.37891 0.25391-0.75781 0.63281-1.0117 0.88281l-112.04 112.04c-5.1797 5.1797-5.1797 13.641 0 18.82l112.04 112.04c5.5586 5.5586 12.883 8.3359 20.086 8.3359 7.1992 0 14.527-2.7773 20.086-8.3359l1.7695-1.7695c5.5586-5.5586 8.3359-12.883 8.3359-20.086 0-7.1992-2.7773-14.527-8.3359-20.086l-79.578-79.578zm60.758 98.398-88.926-88.926c-5.1797-5.1797-5.1797-13.641 0-18.82l88.926-88.926s0.50391-0.75781 0.50391-1.2617c0-0.50391-0.125-0.88281-0.50391-1.2617l-1.7695-1.7695s-0.75781-0.50391-1.2617-0.50391c-0.37891 0-0.75781 0-1.0117 0.25391l-102.95 102.95 102.7 102.7c0.25391 0.25391 0.75781 0.50391 1.2617 0.50391 0.50391 0 0.88281-0.125 1.2617-0.50391l1.7695-1.7695s0.50391-0.75781 0.50391-1.2617c0-0.50391-0.125-0.88281-0.50391-1.2617zm185.94-222.7c1.8945-7.1992 0.88281-14.398-2.3984-20.59-0.125-0.37891-0.37891-0.63281-0.50391-1.0117-3.6641-6.3164-9.7266-11.242-17.18-13.262l-2.3984-0.63281c-7.1992-1.8945-14.398-0.88281-20.59 2.3984-0.37891 0.125-0.63281 0.37891-1.0117 0.50391-6.3164 3.6641-11.242 9.7266-13.262 17.18l-70.738 263.88c-1.8945 7.1992-0.88281 14.398 2.3984 20.59 0.125 0.37891 0.37891 0.63281 0.50391 1.0117 3.6641 6.3164 9.7266 11.242 17.18 13.262l2.3984 0.63281c7.1992 1.8945 14.398 0.88281 20.59-2.3984 0.37891-0.125 0.63281-0.37891 1.0117-0.50391 6.3164-3.6641 11.242-9.7266 13.262-17.18zm-96.379 257.05 70.738-263.88v-1.1367-0.25391s-0.75781-0.75781-1.2617-0.88281l-2.3984-0.63281h-1.1367-0.25391s-0.75781 0.75781-0.88281 1.2617l-70.738 263.88v1.1367 0.25391s0.75781 0.75781 1.2617 0.88281l2.3984 0.63281h1.1367 0.25391s0.75781-0.75781 0.88281-1.2617zm786.82-464.34-1083.7 0.003907v624.63c0 10.609 4.293 20.211 11.367 27.285 7.0742 7.0742 16.672 11.367 27.285 11.367h1006.4c10.609 0 20.211-4.293 27.285-11.367 7.0742-7.0742 11.367-16.672 11.367-27.285v-624.88zm-1083.7-26.902h1083.5v-83.875c0-10.609-4.293-20.211-11.367-27.285-6.9492-6.9492-16.672-11.367-27.285-11.367l-1006.2 0.003906c-10.609 0-20.211 4.293-27.285 11.367-6.9492 6.9492-11.367 16.672-11.367 27.285v83.875z" fill-rule="evenodd"></path>
  </symbol>
  <symbol version="1.1" xmlns="http://www.w3.org/2000/svg" viewBox="0 0 1200 1200" id="web-perfomance-icon">
    <g>
      <path d="m77.426 726h90c9.1445 31.285 21.707 61.465 37.441 90l-63.719 63.898c-3.3711 3.3945-5.2422 7.9922-5.2188 12.781 0.070312 4.7656 1.9336 9.3359 5.2188 12.781l152.28 152.82c6.9961 7.0547 18.395 7.1055 25.453 0.10938 0.035157-0.035156 0.070313-0.070313 0.10938-0.10938l64.441-63.719c28.535 15.73 58.715 28.297 90 37.441v90c0 9.9375 8.0625 18 18 18h90c9.9375 0 18-8.0625 18-18l-0.007813-162c0.011719-9.6016-7.5117-17.52-17.102-18-188.58-10.609-332.86-172.09-322.25-360.67 9.7812-173.76 148.49-312.47 322.25-322.25 9.9258-0.48047 17.594-8.9141 17.113-18.84 0-0.085938-0.011719-0.15625-0.011719-0.23828v-162c0-9.9375-8.0625-18-18-18h-90c-9.9375 0-18 8.0625-18 18v90c-31.285 9.1445-61.465 21.707-90 37.441l-63.898-63.719c-3.3945-3.3711-7.9922-5.2422-12.781-5.2188-4.7656 0.070313-9.3359 1.9336-12.781 5.2188l-152.82 152.28c-3.2891 3.4453-5.1484 8.0156-5.2188 12.781-0.023437 4.7891 1.8477 9.3828 5.2188 12.781l63.719 64.441c-15.73 28.535-28.297 58.715-37.441 90h-90c-9.9375 0-18 8.0625-18 18v216c0.003906 9.9336 8.0664 17.996 18.004 17.996zm18-216h85.68c8.4258 0.26562 15.898-5.3398 18-13.5 9.6719-37.43 24.574-73.309 44.281-106.56 3.9258-7.3555 2.2812-16.441-3.9609-21.961l-60.121-60.66 127.44-127.44 60.656 60.121c5.832 5.8203 14.879 6.9375 21.961 2.6992 33.254-19.703 69.133-34.609 106.56-44.281 8.1602-2.1016 13.766-9.5742 13.5-18l0.003906-84.418h54v127.8c-207.77 20.352-359.7 205.27-339.36 413.04 17.594 179.63 159.72 321.77 339.36 339.36v127.8h-54v-85.68c0.26562-8.4258-5.3398-15.898-13.5-18-37.43-9.6719-73.309-24.574-106.56-44.281-7.0781-4.2344-16.129-3.1211-21.961 2.6992l-60.66 60.84-127.44-126.9 60.121-60.66c5.8203-5.832 6.9375-14.879 2.6992-21.961-19.703-33.254-34.609-69.133-44.281-106.56-2.1016-8.1602-9.5742-13.766-18-13.5h-84.418z"></path>
      <path d="m1067.4 528c-32.746 0.10938-61.297 22.297-69.48 54h-92.52c-2.207-37.32-11.23-73.934-26.641-108h62.641c6.7812-0.023438 12.973-3.8516 16.02-9.8984l13.141-26.102h46.078c9.9375 28.117 40.789 42.852 68.914 32.914 28.117-9.9375 42.852-40.789 32.914-68.914-9.9375-28.129-40.789-42.852-68.914-32.914-15.383 5.4375-27.48 17.531-32.914 32.914h-57.238c-6.7812 0.023438-12.973 3.8516-16.02 9.8984l-13.141 26.102h-72c-16.934-27.121-38.004-51.406-62.461-72h73.621c8.0625 0.42188 15.434-4.5859 18-12.238l12.961-41.762h26.281c9.9375 28.117 40.789 42.852 68.914 32.914 28.117-9.9375 42.852-40.789 32.914-68.914-9.9375-28.129-40.789-42.852-68.914-32.914-15.383 5.4375-27.48 17.531-32.914 32.914h-39.238c-8.0625-0.42188-15.434 4.5859-18 12.238l-12.961 41.762h-113.04c-149.11-79.523-334.48-23.113-414 126-79.523 149.11-23.113 334.48 126 414 90 48 198 48 288 0h113.4l13.859 41.762c2.4375 7.2109 9.1328 12.109 16.738 12.238h39.238c9.9375 28.117 40.789 42.852 68.914 32.914 28.117-9.9375 42.852-40.789 32.914-68.914-9.9375-28.129-40.789-42.852-68.914-32.914-15.383 5.4375-27.48 17.531-32.914 32.914h-26.281l-12.961-41.762c-2.5664-7.6562-9.9375-12.66-18-12.238h-73.262c24.457-20.594 45.527-44.879 62.461-72h72l13.141 26.102c2.9883 5.9414 9.0117 9.7422 15.66 9.8984h57.238c9.9375 28.117 40.789 42.852 68.914 32.914 28.117-9.9375 42.852-40.789 32.914-68.914-9.9375-28.117-40.789-42.852-68.914-32.914-15.383 5.4375-27.48 17.531-32.914 32.914h-46.078l-13.141-26.102c-3.0469-6.0469-9.2383-9.875-16.02-9.8984h-63.539c15.719-34.008 25.043-70.621 27.539-108h93.422c9.9492 38.496 49.223 61.645 87.719 51.707 38.496-9.9492 61.645-49.223 51.707-87.719-8.3125-32.195-37.594-54.516-70.844-53.988zm0-126c9.9375 0 18 8.0625 18 18s-8.0625 18-18 18-18-8.0625-18-18 8.0625-18 18-18zm-90-126c9.9375 0 18 8.0625 18 18s-8.0625 18-18 18-18-8.0625-18-18 8.0625-18 18-18zm0 612c9.9375 0 18 8.0625 18 18s-8.0625 18-18 18-18-8.0625-18-18 8.0625-18 18-18zm90-126c9.9375 0 18 8.0625 18 18s-8.0625 18-18 18-18-8.0625-18-18 8.0625-18 18-18zm-252-324h-93.422c-9.0586-34.547-24.18-67.211-44.641-96.48 55.105 16.68 103.45 50.473 138.06 96.48zm-324 144c0.83984-36.336 5.1836-72.504 12.961-108h189.72c7.9062 35.484 12.359 71.652 13.32 108zm216 36c-0.83984 36.336-5.1836 72.504-12.961 108h-189.72c-7.9062-35.484-12.359-71.652-13.32-108zm-108-288c30.961 0 63.898 40.68 85.141 108h-170.28c21.238-67.32 54.18-108 85.141-108zm-77.941 11.52c-20.461 29.27-35.578 61.934-44.641 96.48h-93.422c34.609-46.008 82.969-79.801 138.06-96.48zm-160.74 132.48h108c-7.5859 35.543-12.035 71.676-13.32 108h-126c2.6797-37.812 13.348-74.629 31.32-108zm0 252c-17.664-33.445-28.031-70.262-30.422-108h126c0.86328 36.289 4.8945 72.422 12.059 108zm22.684 36h92.879c9.0586 34.547 24.18 67.211 44.641 96.48-54.902-16.789-103.06-50.57-137.52-96.48zm216 108c-30.961 0-63.898-40.68-85.141-108h170.28c-21.242 67.32-54.184 108-85.141 108zm77.938-11.52c20.461-29.27 35.578-61.934 44.641-96.48h93.422c-34.609 46.008-82.957 79.801-138.06 96.48zm160.74-132.48h-107.1c7.2852-35.566 11.438-71.711 12.422-108h126c-2.6641 37.812-13.348 74.629-31.32 108zm-94.68-144c-0.86328-36.289-4.8945-72.422-12.059-108h107.1c17.844 33.406 28.402 70.211 30.961 108zm324 54c-19.883 0-36-16.117-36-36s16.117-36 36-36c19.883 0 36 16.117 36 36s-16.117 36-36 36z"></path>
    </g>
  </symbol>
</svg>